<?xml version="1.0" encoding="UTF-8"?>
<svg width="90px" height="100px" viewBox="0 0 90 100" version="1.1" xmlns="http://www.w3.org/2000/svg" xmlns:xlink="http://www.w3.org/1999/xlink">
    <!-- Generator: Sketch 54.1 (76490) - https://sketchapp.com -->
    <title>shoe_care_img</title>
    <desc>Created with Sketch.</desc>
    <g id="shoe_care_img" stroke="none" stroke-width="1" fill="none" fill-rule="evenodd">
        <g transform="translate(11.000000, 14.000000)" fill="#999999" fill-rule="nonzero" id="Shape">
            <path d="M67.0269791,57.6323711 C67.0211833,57.6264648 67.0153875,57.6205586 67.0095916,57.6146523 L56.4290781,46.9669695 C56.6335501,45.7178 55.9888637,44.1903341 55.2736836,42.4965092 C54.4386778,40.5184817 48.0288799,24.1833721 46.0630109,19.1764285 C45.5680728,17.9212122 44.3475761,17.1896823 43.02545,17.3547757 C40.4643614,17.6700564 37.9968149,17.2720884 36.0773126,16.2345591 C35.6765907,16.0178564 35.2392068,15.9066222 34.800475,15.9008566 C34.4207799,14.8269055 34.2870711,13.5496111 34.1474317,12.2149418 C33.8944364,9.79929009 33.6330844,7.30165421 31.8654871,5.45679835 L27.821067,1.23622824 C26.5772521,-0.059066171 24.6909074,-0.36984683 23.1277821,0.462510963 C2.62182018,11.4025527 3.04976905,11.2707873 3.02779876,11.293006 C0.89519813,12.5756442 -0.146166581,14.6920464 0.0165213829,17.4129944 C0.308200548,22.2929538 4.34574648,27.8598651 6.72662485,30.7440784 C10.279207,35.0478984 14.4570662,38.6554852 17.3700839,39.9347484 C18.3977003,40.3861538 19.6128055,40.7048095 20.6540354,40.2996696 C21.6126409,40.7732937 22.5150402,41.4356362 23.2892569,42.2435253 C23.8926985,42.8729616 24.4034067,43.5684915 24.8154507,44.3167557 C24.1978564,45.8461903 24.8720612,48.0840923 26.888071,51.2541957 C28.4474224,53.7059879 30.5707227,56.2962955 31.8832789,57.6648554 C38.7098384,64.7884825 50.3861706,72 58.3883426,72 C61.2656417,72 67.1957325,70.5795496 67.9907065,67.4765242 C67.9909761,67.4756805 67.9911109,67.4748367 67.9912457,67.473993 L68.7738192,64.4163894 C69.3916831,62.0005971 68.7223306,59.4011489 67.0269791,57.6323711 Z M43.3446257,20.1470204 C43.4331808,20.1359111 43.5377756,20.1623485 43.5706636,20.2455984 L44.4479925,22.4749223 L42.5813267,22.8644528 C41.8514549,23.0167493 41.3780828,23.7574198 41.5240571,24.5189027 C41.6704359,25.2826357 42.3821115,25.7738379 43.1098267,25.6219631 L45.4908399,25.125136 C46.1866106,26.8927889 46.346468,27.2956787 46.7626904,28.3551455 L44.9099077,28.7420041 C44.1801706,28.8943007 43.7066637,29.6351118 43.8527729,30.3965947 C43.9987473,31.1576557 44.7082663,31.6518111 45.4386773,31.4995145 L47.8051334,31.0056404 L49.0447699,34.1546501 C49.0501614,34.1685719 49.0558224,34.1823531 49.061753,34.1959937 L49.0773883,34.2356499 L47.2655809,34.6139304 C46.535709,34.766227 46.0623369,35.5070381 46.2084461,36.268521 C46.3544205,37.0295821 47.0639395,37.5237374 47.7943505,37.3714408 L50.1201009,36.8860042 C50.542254,37.9581272 51.0142782,39.1576562 51.3919515,40.1164356 L49.3678544,40.5392942 C48.6379826,40.6917314 48.1647453,41.4325425 48.3108544,42.1940254 C48.4577723,42.9591646 49.1707958,43.4486793 49.8968936,43.2966639 L52.4442339,42.7646806 C52.9216497,43.9182252 53.7038189,45.6584563 53.7697297,46.3160176 C53.5779278,46.3731112 53.1315131,46.4521423 52.1981128,46.397158 C51.0273525,46.3286738 49.3833549,46.071893 47.1710952,45.6120502 C46.761073,45.5269722 46.369247,45.2033947 46.1897107,44.7397549 C40.7720802,30.8194533 37.5361128,22.2047821 36.4146846,19.4388343 C38.4963357,20.196661 40.8972974,20.4483792 43.3446257,20.1470204 Z M19.6609245,37.673784 C17.2619847,38.0936894 7.23099797,29.133644 3.75214434,21.0899093 C1.11584452,14.9939677 4.25543916,13.9380166 4.38564345,13.7222983 C4.82855368,13.4562363 5.21134889,13.2267367 5.52526791,13.0814714 C6.08813862,12.8199094 6.37820034,12.7251283 7.56526984,13.8896417 C9.0170611,15.3140296 11.2645003,18.2654615 14.9878576,23.1551241 C16.584545,25.2519795 18.394061,27.6283968 20.5730284,30.4555165 C21.973331,32.2759036 21.9227859,35.5729911 19.6609245,37.673784 Z M17.0983532,21.4054712 C13.1699848,16.2463716 11.0061135,13.4044864 9.41158279,11.8404581 C9.1960583,11.6290991 8.98228605,11.4322245 8.76837901,11.2520842 L24.3521876,2.96774058 C24.8731395,2.69028798 25.5016515,2.79435028 25.9158521,3.22550571 L29.9600026,7.44495082 C31.0571691,8.59019864 31.2570583,10.4991794 31.4685392,12.520238 C31.6748982,14.4905312 31.8909618,16.4992149 32.8829945,18.2187741 C33.4001723,19.1253817 34.0480937,20.7633786 35.7261924,25.1365266 C35.5129593,25.1341359 35.2973,25.1316047 35.0785406,25.1287922 C30.4394401,25.0707142 25.2179248,25.0077143 21.9674004,27.7757716 C20.1039695,25.3523855 18.5165825,23.2679051 17.0983532,21.4054712 Z M25.1952806,40.2552322 C24.4624434,39.4903743 23.6378162,38.8249381 22.758196,38.2826891 C24.4263205,35.7923657 24.5999262,32.5959655 23.5022205,30.1052202 C25.9599275,27.8286465 30.7791035,27.8877088 35.0467309,27.940865 C35.653677,27.9484587 36.2371701,27.9549275 36.8066453,27.9556306 C38.3146428,31.8942481 40.513963,37.6294872 43.6917024,45.7945811 C43.8440117,46.1877678 44.0534708,46.5525484 44.3084879,46.8809071 C43.9145054,48.1261391 43.2460964,49.2615432 42.3480103,50.1974008 C42.1322163,50.4226816 41.904561,50.6341812 41.6674705,50.831759 C37.2451076,46.9808913 36.0312155,45.4009724 32.6163857,43.9476158 C30.8535059,43.1976641 28.6715732,42.493978 27.0300018,42.7005557 C26.5221242,41.8199636 25.9091127,40.9999808 25.1952806,40.2552322 Z M65.3863512,66.751885 C65.3337843,66.9496033 64.7986797,67.6061802 62.9627454,68.2830071 C61.3992156,68.8595685 59.7088513,69.1500992 58.7271973,69.1823022 C51.5445304,69.4178487 40.1903393,62.3559558 33.7891678,55.6761404 C32.6597871,54.4985489 30.7919082,52.2353344 29.3597959,50.0489011 C27.3822004,47.0299693 27.2811101,45.7997842 27.3015977,45.4781754 C27.8563812,45.37341 29.5115661,45.6635188 31.5983391,46.5514234 C34.6663618,47.857124 35.6098712,49.2663245 40.6135706,53.5735194 C40.6918819,53.6597224 40.7786848,53.7338316 40.872227,53.7952846 C58.6630386,69.0423806 64.1046612,66.2511203 65.3544067,66.6386821 C65.36182,66.6558383 65.3715246,66.6812914 65.382038,66.7168694 C65.3887774,66.7393694 65.388373,66.7437287 65.3863512,66.751885 Z M66.1695987,63.6909064 L66.1040922,63.9467028 C65.2876871,63.7096095 64.447829,63.8074843 63.7854855,63.8074843 C60.679318,63.8074843 54.7288744,61.8072381 43.7879403,52.643568 C43.9471238,52.4959121 44.1023985,52.3434749 44.25336,52.1859752 C45.3024076,51.0927585 46.1167909,49.7940891 46.6563434,48.3711074 C49.4061339,48.9423251 51.3602765,49.2291995 52.778371,49.2291995 C53.5047384,49.2291995 54.0899838,49.1534028 54.5698256,49.0026531 L65.1290428,59.628961 C66.1406195,60.6902559 66.5394544,62.2455654 66.1695987,63.6909064 Z"></path>
        </g>
    </g>
</svg>