<?xml version="1.0" encoding="UTF-8"?>
<svg width="90px" height="100px" viewBox="0 0 90 100" version="1.1" xmlns="http://www.w3.org/2000/svg" xmlns:xlink="http://www.w3.org/1999/xlink">
    <!-- Generator: Sketch 54.1 (76490) - https://sketchapp.com -->
    <title>dry_clean_img</title>
    <desc>Created with Sketch.</desc>
    <g id="dry_clean_img" stroke="none" stroke-width="1" fill="none" fill-rule="evenodd" stroke-linejoin="round">
        <g transform="translate(12.000000, 15.000000)" id="Group" stroke="#8E8E93" stroke-width="2">
            <g>
                <g>
                    <path d="M28.5830204,31.4608696 L17.589551,19.8086957 L17.589551,19.8086957 C20.0181979,17.2346623 23.9556797,17.2346623 26.3843265,19.8086957 L32.9804082,26.8 L28.5830204,31.4608696 Z" id="Path"></path>
                    <path d="M37.3777959,31.4608696 L48.3712653,19.8086957 L48.3712653,19.8086957 C45.9426185,17.2346623 42.0051366,17.2346623 39.5764898,19.8086957 L32.9804082,26.8 L37.3777959,31.4608696 Z" id="Path"></path>
                    <polyline id="Path" points="10.9934694 69.9130435 10.9934694 41.9478261 13.1921633 39.6173913"></polyline>
                    <polyline id="Path" points="54.9673469 69.9130435 54.9673469 41.9478261 52.7686531 39.6173913"></polyline>
                    <path d="M28.5830204,5.82608696 C28.5830204,3.25195977 30.551798,1.16521739 32.9804082,1.16521739 C35.4090184,1.16521739 37.3777959,3.25195977 37.3777959,5.82608696 C37.3777959,8.40021414 35.4090184,10.4869565 32.9804082,10.4869565 L32.9804082,15.1478261" id="Path"></path>
                    <path d="M18.9835229,21.2861913 L7.88891363,26.1521391 C3.77926804,27.9548411 1.09933308,32.204569 1.09934694,36.9187478 L1.09934694,69.9130435" id="Path"></path>
                    <polyline id="Path" points="40.7560891 18.5584174 32.9804082 15.1478261 25.2047273 18.5584174"></polyline>
                    <path d="M64.8614694,69.9130435 L64.8614694,36.9187478 C64.8614833,32.204569 62.1815483,27.9548411 58.0719027,26.1521391 L46.9772934,21.2861913" id="Path"></path>
                    <path d="M32.9804082,26.8 L32.9804082,41.9478261" id="Path"></path>
                    <path d="M39.5764898,43.1130435 L48.3712653,43.1130435 L48.3712653,48.9391304 C48.3712653,51.5132576 46.4024877,53.6 43.9738776,53.6 L43.9738776,53.6 C41.5452674,53.6 39.5764898,51.5132576 39.5764898,48.9391304 L39.5764898,43.1130435 Z" id="Path"></path>
                    <path d="M42.8745306,47.773913 L45.0732245,47.773913" id="Path"></path>
                    <path d="M32.9804082,44.2782609 L32.9804082,46.6086957" id="Path"></path>
                    <path d="M32.9804082,67.5826087 L32.9804082,69.9130435" id="Path"></path>
                    <path d="M32.9804082,48.9391304 L32.9804082,65.2521739" id="Path"></path>
                    <path d="M0,12.8173913 L6.59608163,12.8173913" id="Path"></path>
                    <path d="M3.29804082,9.32173913 L3.29804082,16.3130435" id="Path"></path>
                    <path d="M14.2915102,3.49565217 L20.8875918,3.49565217" id="Path"></path>
                    <path d="M17.589551,0 L17.589551,6.99130435" id="Path"></path>
                    <path d="M65.9608163,12.8173913 L59.3647347,12.8173913" id="Path"></path>
                    <path d="M62.6627755,9.32173913 L62.6627755,16.3130435" id="Path"></path>
                    <path d="M51.6693061,3.49565217 L45.0732245,3.49565217" id="Path"></path>
                    <path d="M48.3712653,0 L48.3712653,6.99130435" id="Path"></path>
                </g>
            </g>
        </g>
    </g>
</svg>